<svg id="Bash_it" xmlns="http://www.w3.org/2000/svg" viewBox="0 0 377.7 84.8"><style>.st0{fill:#2e3c3c}.st1{fill:#fff}.st2{fill:#79ac59}</style><path class="st0" d="M103.7 74.7V11.3H127c4.4 0 8.1.4 11.2 1.2 3.1.8 5.6 2 7.5 3.4 1.9 1.5 3.4 3.3 4.2 5.4.9 2.1 1.3 4.5 1.3 7.1 0 1.4-.2 2.8-.6 4.1-.4 1.3-1 2.6-1.9 3.7-.9 1.2-2 2.2-3.4 3.2-1.4.9-3 1.8-4.9 2.5 4.2 1 7.3 2.7 9.3 4.9 2 2.3 3 5.2 3 8.8 0 2.7-.5 5.2-1.6 7.5-1 2.3-2.6 4.3-4.6 6.1-2 1.7-4.5 3.1-7.5 4-3 1-6.3 1.5-10.1 1.5h-25.2zM118.4 38h7.7c1.6 0 3.1-.1 4.4-.3 1.3-.2 2.4-.6 3.3-1.2.9-.6 1.6-1.4 2.1-2.4s.7-2.3.7-3.8-.2-2.8-.6-3.8c-.4-1-1-1.8-1.7-2.4-.8-.6-1.8-1-3-1.3-1.2-.3-2.6-.4-4.3-.4h-8.6V38zm0 9.8v15.8h10.4c1.9 0 3.5-.2 4.8-.7 1.2-.5 2.2-1.1 2.9-1.9.7-.8 1.2-1.7 1.4-2.7.3-1 .4-2 .4-3 0-1.2-.2-2.2-.5-3.1-.3-.9-.8-1.7-1.6-2.4-.7-.6-1.7-1.1-2.9-1.5-1.2-.3-2.8-.5-4.6-.5h-10.3zM190 74.7c-1.3 0-2.2-.2-2.9-.5-.7-.3-1.2-1.1-1.6-2.2l-1-2.5c-1.1 1-2.2 1.8-3.3 2.5-1 .7-2.1 1.3-3.2 1.8s-2.3.9-3.6 1.1c-1.3.2-2.7.4-4.2.4-2.1 0-3.9-.3-5.6-.8-1.7-.5-3.1-1.3-4.3-2.4-1.2-1-2.1-2.3-2.7-3.9-.6-1.6-1-3.3-1-5.4 0-1.6.4-3.2 1.2-4.9.8-1.7 2.2-3.2 4.2-4.6 2-1.4 4.7-2.5 8.1-3.5 3.4-.9 7.7-1.4 12.8-1.6v-1.9c0-2.6-.5-4.5-1.6-5.7-1.1-1.2-2.6-1.8-4.6-1.8-1.6 0-2.9.2-3.9.5s-1.9.7-2.7 1.2c-.8.4-1.6.8-2.3 1.2-.8.3-1.7.5-2.7.5-.9 0-1.7-.2-2.3-.7-.6-.5-1.2-1-1.6-1.7l-2.4-4.2c2.7-2.4 5.8-4.2 9.1-5.4 3.3-1.2 6.9-1.8 10.7-1.8 2.7 0 5.2.4 7.4 1.3s4 2.1 5.6 3.7c1.5 1.6 2.7 3.5 3.5 5.6.8 2.2 1.2 4.6 1.2 7.1v28.2H190zm-15.5-8.2c1.7 0 3.3-.3 4.6-.9 1.3-.6 2.6-1.6 4-3v-6.3c-2.7.1-4.9.3-6.7.7-1.7.3-3.1.8-4.1 1.3-1 .5-1.7 1.1-2.1 1.8-.4.7-.6 1.4-.6 2.2 0 1.5.4 2.6 1.3 3.2.7.7 2 1 3.6 1zM233.4 39.5c-.3.6-.7.9-1.1 1.2-.4.2-.9.3-1.5.3s-1.3-.1-1.9-.4c-.6-.3-1.3-.6-2.1-.9-.7-.3-1.6-.6-2.5-.9-.9-.3-2-.4-3.2-.4-1.7 0-3 .3-3.9 1-.9.7-1.4 1.6-1.4 2.7 0 .8.3 1.5.9 2.1.6.6 1.4 1 2.4 1.5 1 .4 2.1.8 3.4 1.2 1.2.4 2.5.8 3.8 1.3 1.3.5 2.6 1 3.8 1.6 1.2.6 2.4 1.4 3.4 2.3 1 .9 1.8 2 2.4 3.3.6 1.3.9 2.9.9 4.7 0 2.2-.4 4.3-1.2 6.2-.8 1.9-2 3.5-3.6 4.9-1.6 1.4-3.6 2.4-6 3.2-2.4.8-5.1 1.1-8.2 1.1-1.5 0-3.1-.1-4.6-.4-1.5-.3-3-.7-4.5-1.2-1.4-.5-2.8-1.1-4-1.8-1.2-.7-2.3-1.4-3.1-2.2l3.1-5c.3-.6.8-1 1.3-1.4.5-.3 1.2-.5 2.1-.5.8 0 1.5.2 2.1.5.6.3 1.3.7 2 1.1.7.4 1.6.8 2.5 1.1 1 .3 2.2.5 3.7.5 1 0 1.9-.1 2.7-.3.7-.2 1.3-.5 1.7-.9.4-.4.8-.8 1-1.3.2-.5.3-.9.3-1.4 0-.9-.3-1.6-.9-2.2-.6-.6-1.4-1.1-2.4-1.5-1-.4-2.1-.8-3.4-1.2-1.3-.4-2.5-.8-3.9-1.2-1.3-.5-2.6-1-3.9-1.7-1.3-.7-2.4-1.5-3.4-2.5s-1.8-2.2-2.4-3.7c-.6-1.4-.9-3.2-.9-5.3 0-1.9.4-3.7 1.1-5.5.7-1.7 1.8-3.2 3.3-4.5 1.5-1.3 3.3-2.3 5.6-3.1 2.2-.8 4.8-1.2 7.8-1.2 1.6 0 3.2.1 4.7.4 1.5.3 3 .7 4.3 1.2 1.3.5 2.6 1.1 3.7 1.8s2.1 1.5 2.9 2.3l-2.9 5.1zM243.5 74.7V9.6H257v24c1.6-1.4 3.4-2.5 5.3-3.4 1.9-.9 4.2-1.3 6.8-1.3 2.5 0 4.6.4 6.5 1.3 1.9.9 3.5 2 4.8 3.6 1.3 1.5 2.3 3.3 3 5.4.7 2.1 1 4.4 1 6.9v28.7H271V46.1c0-2.2-.5-3.9-1.5-5.2-1-1.2-2.5-1.8-4.5-1.8-1.5 0-2.9.3-4.2 1-1.3.6-2.6 1.5-3.7 2.6v32.2h-13.6zM293.1 42.8h23.5v10.9h-23.5V42.8zM365.1 75.4c-2.1 0-4-.3-5.7-.9s-3-1.5-4.1-2.7c-1.1-1.1-2-2.5-2.5-4.2-.6-1.6-.9-3.4-.9-5.4V38.9H348c-.7 0-1.3-.2-1.8-.7-.5-.4-.7-1.1-.7-2V31l7.2-1.4 2.7-11c.3-1.4 1.3-2.1 3-2.1h7v13.2h11.2v9.2h-11.2v22.4c0 1 .3 1.9.8 2.6.5.7 1.2 1 2.2 1 .5 0 .9-.1 1.2-.2l.9-.3c.2-.1.5-.2.7-.3.2-.1.5-.2.8-.2.4 0 .7.1 1 .3.2.2.5.5.8.9l4.1 6.4c-1.7 1.3-3.7 2.3-5.9 2.9-2.4.7-4.6 1-6.9 1zM74.8 84.8H10c-5.5 0-10-4.5-10-10V10C0 4.5 4.5 0 10 0h64.8c5.5 0 10 4.5 10 10v64.8c0 5.5-4.5 10-10 10z"/><path class="st1" d="M54.9 38.1v-8.4h-8.2v-8.2h-8.4v8.2h-8.6v-8.2h-8.4v8.2H13v8.4h8.2v8.6H13v8.4h8.2v8.2h8.4v-8.2h8.6v8.2h8.4v-8.2h8.2v-8.4h-8.2v-8.6h8.3zm-16.6 8.6h-8.6v-8.6h8.6v8.6z"/><path class="st2" d="M63.3 21.4h8.4v25.3h-8.4zM63.3 55.1h8.4v8.2h-8.4z"/><path transform="rotate(-180 332.745 51.892)" class="st0" d="M326 28.9h13.5v45.9H326z"/><path transform="rotate(-180 332.745 15.992)" class="st0" d="M326 9.6h13.5v12.8H326z"/></svg>
